<svg width="44" height="44" viewBox="0 0 44 44" fill="none" xmlns="http://www.w3.org/2000/svg">
<g clip-path="url(#clip0)">
<path d="M37.5564 6.44363C33.4012 2.28842 27.8763 0 22 0C16.1237 0 10.5988 2.28842 6.44363 6.44363C2.28842 10.5988 0 16.1237 0 22C0 27.8763 2.28842 33.4012 6.44363 37.5564C10.5988 41.7116 16.1237 44 22 44C27.8763 44 33.4012 41.7116 37.5564 37.5564C41.7116 33.4012 44 27.8763 44 22C44 16.1237 41.7116 10.5988 37.5564 6.44363ZM35.7332 35.7332C34.8279 36.6389 33.848 37.4439 32.8087 38.1428L32.1776 37.0495C31.8214 36.4331 31.0332 36.222 30.4165 36.5778C29.8002 36.9337 29.5887 37.7222 29.9449 38.3385L30.5776 39.4349C28.3191 40.5484 25.8524 41.2121 23.2894 41.3786V40.1221C23.2894 39.4101 22.712 38.833 22.0003 38.833C21.2883 38.833 20.7113 39.4101 20.7113 40.1221V41.3786C18.1479 41.2117 15.6812 40.5484 13.4227 39.4349L14.0555 38.3385C14.4113 37.7222 14.2002 36.9337 13.5838 36.5778C12.9672 36.2216 12.1786 36.4331 11.8228 37.0495L11.1917 38.1428C10.152 37.4439 9.17249 36.6389 8.26678 35.7332C7.36108 34.8275 6.55643 33.848 5.85718 32.8087L6.95053 32.1776C7.5672 31.8214 7.77835 31.0332 7.42218 30.4165C7.06635 29.8002 6.27814 29.5887 5.66147 29.9449L4.56543 30.5776C3.4516 28.3188 2.78827 25.8521 2.62143 23.2891H3.87793C4.58994 23.2891 5.16699 22.712 5.16699 22C5.16699 21.288 4.58994 20.7109 3.87793 20.7109H2.62143C2.78827 18.1479 3.4516 15.6812 4.56509 13.4224L5.66147 14.0555C5.86423 14.1726 6.08612 14.2284 6.30466 14.2284C6.75012 14.2284 7.1835 13.9971 7.42218 13.5835C7.77835 12.9672 7.56686 12.1786 6.95053 11.8228L5.85718 11.1913C6.55643 10.152 7.36108 9.17249 8.26678 8.26678C9.17249 7.36108 10.152 6.55609 11.1917 5.85718L11.8228 6.95053C12.0615 7.36411 12.4948 7.59506 12.9403 7.59506C13.1588 7.59506 13.3807 7.53934 13.5835 7.42218C14.2002 7.06635 14.4113 6.2778 14.0555 5.66147L13.4227 4.56509C15.6812 3.4516 18.1479 2.78793 20.7109 2.62143V3.87793C20.7109 4.58994 21.2883 5.16699 22 5.16699C22.712 5.16699 23.2891 4.58994 23.2891 3.87793V2.62143C25.8524 2.78827 28.3191 3.4516 30.5776 4.56509L29.9449 5.66147C29.5887 6.2778 29.7998 7.06635 30.4165 7.42218C30.6196 7.53934 30.8412 7.59506 31.06 7.59506C31.5055 7.59506 31.9385 7.36377 32.1776 6.95053L32.8087 5.85718C33.848 6.55609 34.8279 7.36108 35.7332 8.26678C36.6389 9.17249 37.4439 10.152 38.1428 11.1913L37.0498 11.8228C36.4331 12.1786 36.222 12.9672 36.5778 13.5835C36.8165 13.9971 37.2499 14.2284 37.6953 14.2284C37.9142 14.2284 38.1358 14.1726 38.3389 14.0555L39.4349 13.4224C40.5487 15.6812 41.2121 18.1479 41.3789 20.7109H40.1221C39.4104 20.7109 38.833 21.288 38.833 22C38.833 22.712 39.4104 23.2891 40.1221 23.2891H41.3789C41.2121 25.8521 40.5487 28.3188 39.4349 30.5776L38.3389 29.9445C37.7222 29.5887 36.9337 29.7998 36.5778 30.4165C36.222 31.0328 36.4331 31.8214 37.0498 32.1772L38.1428 32.8087C37.4439 33.848 36.6389 34.8279 35.7332 35.7332Z" fill="#8FB91C"/>
<path d="M34.9443 20.7109H25.6567C25.267 19.6082 24.3918 18.733 23.2891 18.3433V9.05566C23.2891 8.34366 22.712 7.7666 22 7.7666C21.288 7.7666 20.7109 8.34366 20.7109 9.05566V18.3433C19.2047 18.8757 18.1221 20.3135 18.1221 22C18.1221 24.1384 19.8616 25.8779 22 25.8779C23.6865 25.8779 25.1243 24.7953 25.6567 23.2891H34.9443C35.6563 23.2891 36.2334 22.712 36.2334 22C36.2334 21.288 35.6563 20.7109 34.9443 20.7109ZM22 23.2998C21.2833 23.2998 20.7002 22.7167 20.7002 22C20.7002 21.2833 21.2833 20.7002 22 20.7002C22.7167 20.7002 23.2998 21.2833 23.2998 22C23.2998 22.7167 22.7167 23.2998 22 23.2998Z" fill="#8FB91C"/>
</g>
<defs>
<clipPath id="clip0">
<rect width="44" height="44" fill="white"/>
</clipPath>
</defs>
</svg>
