<svg width="44" height="44" viewBox="0 0 44 44" fill="none" xmlns="http://www.w3.org/2000/svg">
<g clip-path="url(#clip0)">
<path d="M38.5157 9.04891C38.4248 4.19894 34.1035 -0.0187869 29.2535 0.00115064C28.3716 -0.0125134 27.4972 0.0959397 26.6539 0.322987C23.5411 1.16105 20.3588 1.17093 17.4509 0.351862C16.5758 0.105307 15.6675 -0.0125994 14.7495 0.00106471C12.3976 0.036385 10.145 0.970182 8.40666 2.63067C6.66677 4.29253 5.63243 6.50069 5.49407 8.84824C5.39421 10.5424 5.74827 12.2275 6.5181 13.7222L9.28211 19.2644C9.31433 19.329 9.34587 19.3941 9.37655 19.4595C10.5309 21.9176 12.9497 23.5354 15.6164 23.6703V26.7898L13.9825 27.0159C13.2767 27.1137 12.7837 27.7651 12.8814 28.4709C12.976 29.1799 13.6452 29.6724 14.3363 29.5719L15.6164 29.3947V31.6062L13.9825 31.8324C13.2767 31.9301 12.7837 32.5815 12.8814 33.2873C12.976 33.9963 13.6452 34.4888 14.3363 34.3884L15.6164 34.2112V36.4228L13.9825 36.6489C13.2767 36.7467 12.7837 37.3981 12.8814 38.1039C12.976 38.8128 13.6452 39.3054 14.3363 39.2049L15.6662 39.0208C15.8683 40.3834 16.6793 41.6081 17.8838 42.3162L19.6703 43.3664C21.1074 44.2112 22.8927 44.2111 24.3297 43.3664L26.1163 42.3162C27.5149 41.494 28.3837 39.9754 28.3837 38.3531V37.2602L30.0175 37.034C30.7233 36.9363 31.2163 36.2849 31.1186 35.5791C31.0209 34.8733 30.3694 34.3798 29.6636 34.4781L28.3837 34.6553V32.4437L30.0175 32.2175C30.7233 32.1198 31.2163 31.4684 31.1186 30.7626C31.0209 30.0567 30.3694 29.5635 29.6636 29.6615L28.3837 29.8387V27.6272L30.0175 27.401C30.7233 27.3033 31.2163 26.6519 31.1186 25.9461C31.0209 25.2402 30.3694 24.7471 29.6636 24.8451L28.3837 25.0223V23.5878C31.0875 23.5009 33.5704 21.8715 34.7433 19.3968L37.2769 14.0988C38.1552 12.5692 38.5834 10.8243 38.5157 9.04891ZM25.8033 38.3532C25.8033 39.0649 25.4222 39.7311 24.8086 40.0919L23.0221 41.1421C22.3916 41.5127 21.6084 41.5127 20.9779 41.1421L19.1914 40.0919C18.6692 39.7849 18.3164 39.2564 18.2225 38.6671L25.8033 37.6176V38.3532ZM25.8033 35.0125L18.1967 36.0656V33.854L25.8033 32.8009V35.0125ZM25.8033 30.196L18.1967 31.2491V29.0375L25.8033 27.9845V30.196ZM18.1967 26.4325V23.6805H25.8033V25.3794L18.1967 26.4325ZM35.0196 12.8478C35.0021 12.8779 34.9858 12.9086 34.9708 12.9401L32.4298 18.2534L32.4121 18.2906C31.6227 19.956 30.0045 20.9988 28.189 21.0119L16.0107 21.1001C14.1886 21.1144 12.4993 20.0388 11.7122 18.3626C11.6727 18.2787 11.6322 18.1952 11.5911 18.1125L8.82354 12.5632C8.82088 12.5577 8.81813 12.5523 8.81538 12.547C8.25498 11.4617 7.99717 10.2352 8.07004 9.00001C8.27552 5.5131 11.2893 2.63359 14.7882 2.58117C15.4539 2.57103 16.1169 2.65671 16.7513 2.83554C20.1067 3.78085 23.7629 3.77363 27.3247 2.81466C27.9366 2.64992 28.5734 2.57257 29.2141 2.58117C30.9608 2.60789 32.6172 3.30081 33.8784 4.53229C36.1099 6.64575 36.5856 10.2264 35.0196 12.8478Z" fill="#8FB91C"/>
<path d="M25.5191 6.70686L23.5814 7.58042C22.5729 8.03503 21.4154 8.0364 20.4059 7.58403L18.4456 6.70566C16.8555 6.06809 15.8571 8.29937 17.3905 9.06052L19.3508 9.9388C21.0329 10.6926 22.9615 10.6903 24.6419 9.93279L26.5795 9.05923C27.2291 8.76636 27.5183 8.00237 27.2255 7.35277C26.9327 6.70325 26.1687 6.41407 25.5191 6.70686Z" fill="#8FB91C"/>
</g>
<defs>
<clipPath id="clip0">
<rect width="44" height="44" fill="white"/>
</clipPath>
</defs>
</svg>
